<svg width="32" height="24" viewBox="0 0 32 24" fill="none" xmlns="http://www.w3.org/2000/svg">
<rect x="0.5" y="0.5" width="31" height="23" rx="3.5" stroke="#EAEAEA"/>
<g clip-path="url(#clip0)">
<path d="M13.7115 15.8852H11.7091L12.9616 8.14099H14.9639L13.7115 15.8852Z" fill="#00579F"/>
<path d="M20.9705 8.33031C20.5756 8.17362 19.9491 8.00061 19.1745 8.00061C17.1971 8.00061 15.8045 9.05508 15.796 10.5627C15.7796 11.675 16.793 12.2927 17.551 12.6636C18.3257 13.0426 18.589 13.29 18.589 13.6278C18.5811 14.1466 17.963 14.3857 17.3865 14.3857C16.587 14.3857 16.1587 14.2624 15.5077 13.9738L15.244 13.85L14.9638 15.5884C15.4335 15.8024 16.2987 15.9923 17.1971 16.0006C19.2981 16.0006 20.666 14.9624 20.6822 13.3559C20.6902 12.4743 20.1551 11.7988 19.0014 11.2468C18.301 10.8925 17.8721 10.6535 17.8721 10.291C17.8803 9.96141 18.2349 9.62382 19.0255 9.62382C19.6765 9.60729 20.1548 9.76376 20.5171 9.92034L20.6982 10.0026L20.9705 8.33031Z" fill="#00579F"/>
<path d="M23.6318 13.1417C23.7967 12.6968 24.4312 10.9749 24.4312 10.9749C24.4229 10.9915 24.5958 10.5218 24.6947 10.2335L24.8346 10.9008C24.8346 10.9008 25.2138 12.7545 25.2962 13.1417C24.9832 13.1417 24.0273 13.1417 23.6318 13.1417ZM26.1035 8.14099H24.5546C24.077 8.14099 23.7141 8.28093 23.508 8.78353L20.5337 15.8851H22.6348C22.6348 15.8851 22.9807 14.9293 23.055 14.7234C23.2855 14.7234 25.3294 14.7234 25.626 14.7234C25.6834 14.9953 25.8649 15.8851 25.8649 15.8851H27.7189L26.1035 8.14099Z" fill="#00579F"/>
<path d="M10.0367 8.14099L8.07569 13.4218L7.86139 12.3508C7.49884 11.115 6.3618 9.77231 5.09293 9.10469L6.88915 15.877H9.00665L12.1541 8.14099H10.0367Z" fill="#00579F"/>
<path d="M6.25464 8.14099H3.03296L3 8.29747C5.51312 8.94012 7.1775 10.4892 7.86132 12.3511L7.16097 8.79196C7.04567 8.29736 6.69133 8.15731 6.25464 8.14099Z" fill="#FAA61A"/>
</g>
<defs>
<clipPath id="clip0">
<rect width="24.719" height="8" fill="white" transform="translate(3 8)"/>
</clipPath>
</defs>
</svg>
